PathFileType	4	(X/Y/Z)	RBDS026\RBDS026runT35.trc
DataRate	CameraRate	NumFrames	NumMarkers	Units	OrigDataRate	OrigDataStartFrame	OrigNumFrames
150.000000	150.000000	5	33	mm	150.000000	2812	4500
Frame#	Time	L.ASIS			L.Heel.Bottom			L.Heel.Lateral			L.Heel.Top			L.Iliac.Crest			L.MT1			L.MT5			L.PSIS			L.Shank.Bottom.Lateral			L.Shank.Bottom.Medial			L.Shank.Top.Lateral			L.Shank.Top.Medial			L.Thigh.Bottom.Lateral			L.Thigh.Bottom.Medial			L.Thigh.Top.Lateral			L.Thigh.Top.Medial			R.ASIS			R.ASY			R.Heel.Bottom			R.Heel.Lateral			R.Heel.Top			R.Iliac.Crest			R.MT1			R.MT5			R.PSIS			R.Shank.Bottom.Lateral			R.Shank.Bottom.Medial			R.Shank.Top.Lateral			R.Shank.Top.Medial			R.Thigh.Bottom.Lateral			R.Thigh.Bottom.Medial			R.Thigh.Top.Lateral			R.Thigh.Top.Medial			
		X1	Y1	Z1	X2	Y2	Z2	X3	Y3	Z3	X4	Y4	Z4	X5	Y5	Z5	X6	Y6	Z6	X7	Y7	Z7	X8	Y8	Z8	X9	Y9	Z9	X10	Y10	Z10	X11	Y11	Z11	X12	Y12	Z12	X13	Y13	Z13	X14	Y14	Z14	X15	Y15	Z15	X16	Y16	Z16	X17	Y17	Z17	X18	Y18	Z18	X19	Y19	Z19	X20	Y20	Z20	X21	Y21	Z21	X22	Y22	Z22	X23	Y23	Z23	X24	Y24	Z24	X25	Y25	Z25	X26	Y26	Z26	X27	Y27	Z27	X28	Y28	Z28	X29	Y29	Z29	X30	Y30	Z30	X31	Y31	Z31	X32	Y32	Z32	X33	Y33	Z33	

2813	18.74666666666667	2305.408284440538	1040.838601970184	909.572610011085	2423.105762827318	28.19511022811912	1023.824094475057	2442.569361033485	46.45790296376714	968.2903311082298	2415.056574823088	73.79570779920687	1013.568138745654	2220.802779195561	1124.663365428944	861.1152087296427	2627.520004859394	122.0042862065993	1013.293465625689	2584.378241506464	75.52615948143881	918.5925386260459	2135.924129194416	1088.355022220681	973.5727782447822	2441.990663324596	182.6782378173931	927.4935174081727	2400.385578668484	177.5575665616977	956.9748165129733	2418.388254062356	254.961345915986	899.8372376632136	2374.07792095117	252.8568990770091	928.3491729229004	2325.815849953556	646.5284266403664	858.5332793345265	2264.854480540038	627.9170601929785	893.1006585650113	2282.696080913172	745.958570278288	837.2379672243557	2227.332502304307	729.188441336568	874.8482053704389	2304.22801683626	1035.027390451022	1140.893221026915	1645.939432651536	314.8550482906493	1050.480660706732	1615.111685739715	498.1371949710135	1002.793462533881	1618.243649975281	470.6281064279706	1053.776314237556	1657.443930300721	486.1251523124529	1016.30050341676	2259.629758533898	1117.959358584451	1175.220148316194	1616.588687542855	272.6552052053648	993.8130147021963	1578.999044236556	315.0305727086071	1089.769834336967	2142.434734699978	1090.1335511359	1075.585304737603	1723.013568770608	444.5897019084566	1100.435006617178	1717.467411984525	485.8509885579095	1063.792704321397	1790.346847675515	480.870336523927	1128.754626005955	1784.028511742408	520.2729574939784	1092.844323328795	2111.171946232392	623.3510161913274	1194.071860291178	2055.833754864136	642.0741826717017	1152.033953018593	2138.244163743251	729.7848973590942	1204.64470468249	2082.971933480704	747.3985472778828	1168.332477572371	
2814	18.75333333333333	2304.377409737514	1036.280316803466	908.6845715013541	2407.68198231102	25.90674552143961	1024.684977447887	2427.851544822102	43.73543833216537	969.3609270011139	2402.086013751442	71.69050543353366	1015.203201886543	2218.653582649855	1119.157626423465	861.5256456677732	2615.695963491198	109.6711351328491	1014.522103030751	2570.212030334001	67.45785414050158	919.1539204761677	2134.548283005149	1081.827260087861	974.8184147484968	2434.022547063395	176.9368019844449	928.8985007625408	2391.708919999858	173.0576488264341	957.4224317197065	2413.048688514619	249.7464047241731	900.7653789433505	2368.195738220318	248.9908033239934	928.3335185642031	2327.44138279985	642.4206926229108	858.4942964144026	2266.510127261093	623.10434515079	892.7077408521711	2283.456297437602	741.3732310634989	837.1274735521998	2228.019969674361	724.0030998381682	874.422801710213	2304.055173794945	1029.423592456028	1140.524314411956	1647.383036454033	323.776050228083	1052.948974768261	1624.590421271941	507.7628606233744	1003.817125599299	1626.60721581778	480.493676837324	1054.956426200717	1666.362966463978	494.0900550934384	1017.466245164336	2259.448062450985	1111.705243951322	1175.499960154292	1616.173874834521	282.425945123348	996.7143900633598	1580.686434459206	327.0994157165217	1092.263336293551	2141.54000415187	1083.142079028924	1076.62028842867	1729.815129304854	449.7517816489271	1102.162717831323	1725.813777186375	491.2872914775006	1065.632112209837	1798.499643299818	483.2855771982744	1130.573059632773	1793.674105476185	523.0011057612035	1094.805971294006	2118.173263846627	614.7479010312915	1195.288367376319	2062.415593151239	632.2844772724968	1153.401859086477	2143.184050591631	721.7528165651582	1205.481796930781	2087.459286454408	738.1865134616156	1169.310222367158	
2815	18.76	2303.307209361406	1031.361164936988	907.8196686530066	2389.991294292441	24.27021829046	1025.550542831214	2411.031556413774	41.75982923349188	970.5474325216759	2387.098074361769	70.23777892888261	1017.032613037309	2216.521846782646	1113.193426860229	861.8123183554566	2601.935627918029	97.02063765824924	1016.266609879429	2554.064342709298	59.82617465612216	920.0342299934506	2133.117724934878	1075.157908281184	976.0202282879789	2424.848827378004	171.4687127000238	930.6468576329797	2381.766310026002	169.0720585989348	958.04469510417	2406.961051640139	244.7701636515269	901.913503699306	2361.506745924572	245.6113335806213	928.3565893479091	2329.142481175971	638.2518271806938	858.3037700269933	2268.335396666062	618.1589832764162	892.2888687812364	2284.066863436216	736.6184299803783	836.852220763888	2228.667509644537	718.5829885523813	873.9414075872847	2303.779629937966	1023.278043025396	1140.057910847557	1650.218062718631	332.1952699646211	1056.001889998369	1635.300113555195	516.3018386391545	1004.651251931533	1636.253132271578	489.5831948507977	1056.118316161912	1676.446188052203	501.0802107100976	1018.480028456355	2259.493267884452	1104.735196539428	1175.838799460998	1617.103902635371	291.5674415076465	1000.505373952507	1583.931178151346	338.8167823338567	1095.447914021365	2140.518615036177	1075.843519789384	1077.636153008271	1737.677018761671	454.3906991523347	1104.025464876642	1735.257802463516	495.9842333464618	1067.439904004022	1807.614427593966	485.2234089732787	1132.38976139699	1804.326849939688	525.0210425242939	1096.593274442008	2125.494802500547	605.8442854523621	1196.606191240279	2069.257474576271	622.1158966623285	1154.957768040413	2148.310706447844	713.4170640465394	1206.428356907229	2092.069726560831	728.5827441903604	1170.49676793742	
2816	18.76666666666667	2302.154427166801	1026.136033193381	907.0053718249214	2370.49389219872	23.31516278994413	1026.429591696551	2392.508695691566	40.60113177313652	971.8426275365779	2370.39134004277	69.44759448894254	1019.026383236794	2214.461802828217	1106.791125697962	861.9374746688621	2586.422207746725	84.7653299516172	1018.429015401762	2536.253653022736	53.07039415767431	921.2078517818146	2131.601901472587	1068.440448256341	977.1451367265389	2414.532524500682	166.5002602958068	932.7045891206823	2370.683558286989	165.8089450633454	958.8663028885009	2400.116021063487	240.2070289344049	903.2707364246792	2354.058370717928	242.8684699546857	928.4659727691118	2330.733642481013	634.0498822244446	857.9876263367854	2270.166583400091	613.16074083952	891.9255561228535	2284.381326221517	731.7478078196683	836.4421192860599	2229.153040172946	713.0199060365784	873.4725000611442	2303.368683815183	1016.63648937273	1139.506652598357	1654.49757630675	340.0192980453082	1059.55018684065	1647.050178174013	523.7474740762749	1005.448222222847	1647.071968883134	497.820495930781	1057.383496343576	1687.533934843507	507.0911559473415	1019.435897464895	2259.689911588398	1097.122709048769	1176.223834177722	1619.401343534684	300.0212365696904	1005.077528552591	1588.806955044037	349.9915751605184	1099.300108722432	2139.332844681929	1068.340477392256	1078.587441798333	1746.581684292597	458.4867459127311	1106.039866777151	1745.732534324115	499.9414446223778	1069.257478179743	1817.681940265096	486.6809914025522	1134.214591713921	1815.932925921251	526.3445284041672	1098.22957866622	2133.168431145488	596.7789994460098	1197.995594142898	2076.387686663338	611.7053194172173	1156.676981981159	2153.657606493572	704.9062496791282	1207.462581586662	2096.830840751293	718.7155191288061	1171.893015202765	
2817	18.77333333333333	2300.868911043755	1020.690699742951	906.2564418702884	2349.636034458833	23.01448507145486	1027.317660815248	2372.662136279098	40.25441267495417	973.2156781232379	2352.252229420397	69.28035868522558	1021.12434602085	2212.501921951877	1100.011874798057	861.8789327505424	2569.345277135647	73.55015419637864	1020.854935641278	2517.081690985628	47.51012927524553	922.6086338699793	2129.96840584259	1061.77735344731	978.1783237860545	2403.103476254494	162.2131895313261	934.9908190153409	2358.556667359097	163.4275441792768	959.8768928581216	2392.46057610786	236.1972739358409	904.7905139005462	2345.859908083032	240.874586392369	928.6884198715439	2332.039727611552	629.8483478222272	857.5804491723218	2271.842645927392	608.1961589013265	891.6948033852743	2284.281182904523	726.8272016416532	835.9392725030218	2229.36767292066	707.419994279919	873.0829835443785	2302.785946043255	1009.576102097746	1138.888632556409	1660.251334409557	347.1461226816527	1063.494714095057	1659.648496471117	530.1169699511942	1006.363749525492	1658.937953330148	505.1396545699944	1058.867904328869	1699.466314972497	512.141599639814	1020.436242600573	2259.923679575671	1088.991596339769	1176.639634047711	1623.086742150418	307.7190560929388	1010.296732811175	1595.341717322597	360.4144181766271	1103.766831259738	2137.948939920668	1060.755372304057	1079.440777886564	1756.50322247664	462.0212825854885	1108.221836880472	1757.16232222363	503.1677555681684	1071.131806862468	1828.681962227889	487.6610200496137	1136.061267346126	1828.424778802305	527.0000919471847	1099.750042331362	2141.234247734561	587.7156674296668	1199.417228423804	2083.849861210013	601.2120419433907	1158.518366633026	2159.265155695481	696.3725447104217	1208.550668021679	2101.785591101596	708.7352416414474	1173.477425027211	
